<?xml version="1.0" encoding="utf-8"?>
<!-- Generator: Adobe Illustrator 17.1.0, SVG Export Plug-In . SVG Version: 6.00 Build 0)  -->
<!DOCTYPE svg PUBLIC "-//W3C//DTD SVG 1.1//EN" "http://www.w3.org/Graphics/SVG/1.1/DTD/svg11.dtd">
<svg version="1.1" id="Layer_1" xmlns="http://www.w3.org/2000/svg" xmlns:xlink="http://www.w3.org/1999/xlink" x="0px" y="0px"
	 viewBox="279.6 258.8 231.3 209.3" enable-background="new 279.6 258.8 231.3 209.3" xml:space="preserve">
<image display="none" overflow="visible" enable-background="new    " width="116" height="104" xlink:href="83B81806.png"  transform="matrix(1.9551 0 0 1.9551 326.1065 263.143)">
</image>
<path display="none" fill="#C42CB2" d="M328,265.2l25.4,25.4h50.8c23.6,0,58.6,36.2,58.6,50.7h25.4c0-31.4-52.5-78-84-76.1H328z"/>
<g>
	<path fill="#FFFFFF" d="M419.1,388.5c-1.2,20.1-21.9,42.3-47.1,47.1v27.2c37.5-7.7,69.9-40.8,72.7-74.2h-25.7V388.5z"/>
	<path fill="#FFFFFF" d="M419.5,342.7h25.3c0.5-39-41.1-73.9-96.5-77.5h-64.1l25.5,25.3h40.5C393.6,294.4,418.3,323.7,419.5,342.7z"
		/>
	<polygon fill="#FFFFFF" points="481.7,353.3 368.2,353 335.1,384.3 335.1,464.7 360.5,464.7 360.5,376.5 481.7,376.5 481.7,464.7 
		507,464.9 507,265.7 481.7,265.3 	"/>
	<polygon fill="#FFFFFF" points="284.2,464.7 325.2,464.4 325.2,439 309.6,439 	"/>
</g>
<g display="none">
	<polygon display="inline" points="284.2,464.7 325.2,464.4 325.2,439 309.6,439 	"/>
	<polygon display="inline" points="335.1,464.7 360.5,464.7 360.5,376.5 481.7,376.5 481.7,464.7 507,464.9 507,265.7 481.7,265.3 
		481.7,353.3 368.2,353 335.1,384.3 	"/>
	<path display="inline" d="M444.8,388.5c-2.7,33.4-35.3,66.5-72.7,74.2v-27.2c25.1-4.7,45.8-26.9,47.1-47.1h25.7V388.5z"/>
	<path display="inline" d="M350.2,290.6c43.4,4,68.1,33.1,69.3,52.2h25.3c0.5-39-41.1-73.9-96.5-77.5h-64.1l25.5,25.3L350.2,290.6z"
		/>
</g>
<path display="none" fill="#C42CB2" d="M416,439v25.3c37.2-0.1,74.7-44,74.7-75.9H463C463,403.8,442.6,439,416,439z"/>
<path display="none" fill="#C42CB2" d="M328,265l65.7-0.4c27.1,1.9,45.8,10.9,62.2,23.2c3.1,2.3,6.4,5.1,9,8
	c1.8,1.9,3.1,3.6,4.6,5.5c4.1,5.1,8.7,10.1,11.4,16c3.8,8.5,6.9,16.3,7.6,25.1l-25,0.1c-11.8-31.4-37.7-48.2-47.2-49.1
	c-2.2-0.3-2.1-1-5.3-1.7c-4.9-0.9-8.9-1.3-19.1-1.5l-38.5-0.4L328,265z"/>
</svg>
